<svg xmlns="http://www.w3.org/2000/svg" viewBox="0 0 24 24" width="24" height="24">
  <circle cx="12" cy="12" r="12" fill="#4285F4"/>
  <path d="M19.5 7.5v9a1.5 1.5 0 0 1-1.5 1.5h-12A1.5 1.5 0 0 1 4.5 16.5v-9A1.5 1.5 0 0 1 6 6h12a1.5 1.5 0 0 1 1.5 1.5z" fill="white"/>
  <path d="M19.5 7.5v9a1.5 1.5 0 0 1-1.5 1.5h-12A1.5 1.5 0 0 1 4.5 16.5v-9l6.358 5.298a1.5 1.5 0 0 0 1.922 0L19.5 7.5z" fill="#F2F2F2"/>
  <path d="M19.5 7.5l-6.72 5.298a1.5 1.5 0 0 1-1.922 0L4.5 7.5A1.5 1.5 0 0 1 6 6h12a1.5 1.5 0 0 1 1.5 1.5z" fill="#D1D1D1"/>
</svg>